<?xml version="1.0"?>
<svg width="134" height="32" xmlns="http://www.w3.org/2000/svg" xmlns:svg="http://www.w3.org/2000/svg">
 <title>deploy2.org</title>
 <g class="layer">
  <rect fill="#009DDC" height="32" id="brand-blue" rx="4" width="134" x="0" y="0"/>
  <path d="m23.25697,8.55211c1.5871,0 2.98748,0.87417 3.73435,2.16243c0.65352,-0.27605 1.35371,-0.46009 2.10058,-0.46009c2.89413,0 5.2281,2.30046 5.2281,5.15302c0,2.85257 -2.33397,5.15303 -5.2281,5.15303c-0.37344,0 -0.70019,-0.04601 -1.02695,-0.09202c-0.65351,1.15023 -1.91386,1.93239 -3.36092,1.93239c-0.60683,0 -1.16699,-0.13803 -1.68046,-0.36808c-0.65351,1.51831 -2.19393,2.57652 -4.01443,2.57652c-1.86718,0 -3.50096,-1.15023 -4.1078,-2.80656c-0.28007,0.04601 -0.56015,0.09202 -0.84023,0.09202c-2.24061,0 -4.06111,-1.79436 -4.06111,-4.0028c0,-1.47229 0.79355,-2.76055 2.00722,-3.45069c-0.2334,-0.55211 -0.37344,-1.19624 -0.37344,-1.84036c0,-2.53051 2.10058,-4.60092 4.71463,-4.60092c1.63378,0.04601 2.98748,0.73615 3.82771,1.84037c0.79355,-0.78216 1.86718,-1.28826 3.08085,-1.28826z" fill="#FFFFFF" fill-rule="nonzero" id="shape-main"/>
  <text fill="#ffffff" font-family="Sans-serif" font-size="14" id="svg_1" stroke-dasharray="null" stroke-linecap="null" stroke-linejoin="null" stroke-width="0" text-anchor="middle" x="82.4375" xml:space="preserve" y="20.351563">Deploy 2 Org</text>
 </g>
</svg>